<mxfile host="app.diagrams.net" modified="2023-05-13T13:08:08.933Z" agent="Mozilla/5.0 (Windows NT 10.0; Win64; x64) AppleWebKit/537.36 (KHTML, like Gecko) Chrome/113.0.0.0 Safari/537.36" etag="igHvr-wZDTspPIkDgruJ" version="21.3.0" type="device">
  <diagram name="Pagina-1" id="J2b6sBxERoD_dT7TaHyf">
    <mxGraphModel dx="1114" dy="620" grid="1" gridSize="10" guides="1" tooltips="1" connect="1" arrows="1" fold="1" page="1" pageScale="1" pageWidth="827" pageHeight="1169" math="0" shadow="0">
      <root>
        <mxCell id="0" />
        <mxCell id="1" parent="0" />
        <mxCell id="PYjnqi-Kpa4nQ8IAvLQp-1" value="&lt;p style=&quot;margin:0px;margin-top:4px;text-align:center;&quot;&gt;&lt;i&gt;&amp;lt;&amp;lt;Interface&amp;gt;&amp;gt;&lt;/i&gt;&lt;br&gt;&lt;b&gt;ITestState&lt;/b&gt;&lt;/p&gt;&lt;hr size=&quot;1&quot;&gt;&lt;p style=&quot;margin:0px;margin-left:4px;&quot;&gt;+TestTrue()&lt;/p&gt;&lt;p style=&quot;margin:0px;margin-left:4px;&quot;&gt;+TestEditPlaylist()&lt;/p&gt;&lt;p style=&quot;margin:0px;margin-left:4px;&quot;&gt;+TestMakePlaylist()&lt;/p&gt;&lt;p style=&quot;margin:0px;margin-left:4px;&quot;&gt;+TestPlaylist()&lt;/p&gt;&lt;p style=&quot;margin:0px;margin-left:4px;&quot;&gt;+TestRadio()&lt;/p&gt;&lt;p style=&quot;margin:0px;margin-left:4px;&quot;&gt;+TestSingleFile()&lt;/p&gt;" style="verticalAlign=top;align=left;overflow=fill;fontSize=12;fontFamily=Helvetica;html=1;whiteSpace=wrap;" vertex="1" parent="1">
          <mxGeometry x="390" y="70" width="190" height="140" as="geometry" />
        </mxCell>
        <mxCell id="PYjnqi-Kpa4nQ8IAvLQp-2" value="TestEditPlaylistState" style="swimlane;fontStyle=1;align=center;verticalAlign=top;childLayout=stackLayout;horizontal=1;startSize=26;horizontalStack=0;resizeParent=1;resizeParentMax=0;resizeLast=0;collapsible=1;marginBottom=0;whiteSpace=wrap;html=1;" vertex="1" parent="1">
          <mxGeometry x="10" y="340" width="180" height="170" as="geometry" />
        </mxCell>
        <mxCell id="PYjnqi-Kpa4nQ8IAvLQp-3" value="-context:Context" style="text;strokeColor=none;fillColor=none;align=left;verticalAlign=top;spacingLeft=4;spacingRight=4;overflow=hidden;rotatable=0;points=[[0,0.5],[1,0.5]];portConstraint=eastwest;whiteSpace=wrap;html=1;" vertex="1" parent="PYjnqi-Kpa4nQ8IAvLQp-2">
          <mxGeometry y="26" width="180" height="24" as="geometry" />
        </mxCell>
        <mxCell id="PYjnqi-Kpa4nQ8IAvLQp-4" value="" style="line;strokeWidth=1;fillColor=none;align=left;verticalAlign=middle;spacingTop=-1;spacingLeft=3;spacingRight=3;rotatable=0;labelPosition=right;points=[];portConstraint=eastwest;strokeColor=inherit;" vertex="1" parent="PYjnqi-Kpa4nQ8IAvLQp-2">
          <mxGeometry y="50" width="180" height="8" as="geometry" />
        </mxCell>
        <mxCell id="PYjnqi-Kpa4nQ8IAvLQp-5" value="&lt;div&gt;&lt;/div&gt;+TestEditPlaylistState()&lt;div&gt;+TestTrue()&lt;/div&gt;&lt;div&gt;+TestEditPlaylist()&lt;/div&gt;&lt;div&gt;+TestMakePlaylist()&lt;/div&gt;&lt;div&gt;+TestPlaylist()&lt;/div&gt;&lt;div&gt;+TestRadio()&lt;/div&gt;&lt;div&gt;+TestSingleFile()&lt;/div&gt;" style="text;strokeColor=none;fillColor=none;align=left;verticalAlign=top;spacingLeft=4;spacingRight=4;overflow=hidden;rotatable=0;points=[[0,0.5],[1,0.5]];portConstraint=eastwest;whiteSpace=wrap;html=1;" vertex="1" parent="PYjnqi-Kpa4nQ8IAvLQp-2">
          <mxGeometry y="58" width="180" height="112" as="geometry" />
        </mxCell>
        <mxCell id="PYjnqi-Kpa4nQ8IAvLQp-6" value="TestMakePlaylistState" style="swimlane;fontStyle=1;align=center;verticalAlign=top;childLayout=stackLayout;horizontal=1;startSize=26;horizontalStack=0;resizeParent=1;resizeParentMax=0;resizeLast=0;collapsible=1;marginBottom=0;whiteSpace=wrap;html=1;" vertex="1" parent="1">
          <mxGeometry x="200" y="340" width="180" height="170" as="geometry" />
        </mxCell>
        <mxCell id="PYjnqi-Kpa4nQ8IAvLQp-7" value="-context:Context" style="text;strokeColor=none;fillColor=none;align=left;verticalAlign=top;spacingLeft=4;spacingRight=4;overflow=hidden;rotatable=0;points=[[0,0.5],[1,0.5]];portConstraint=eastwest;whiteSpace=wrap;html=1;" vertex="1" parent="PYjnqi-Kpa4nQ8IAvLQp-6">
          <mxGeometry y="26" width="180" height="24" as="geometry" />
        </mxCell>
        <mxCell id="PYjnqi-Kpa4nQ8IAvLQp-8" value="" style="line;strokeWidth=1;fillColor=none;align=left;verticalAlign=middle;spacingTop=-1;spacingLeft=3;spacingRight=3;rotatable=0;labelPosition=right;points=[];portConstraint=eastwest;strokeColor=inherit;" vertex="1" parent="PYjnqi-Kpa4nQ8IAvLQp-6">
          <mxGeometry y="50" width="180" height="8" as="geometry" />
        </mxCell>
        <mxCell id="PYjnqi-Kpa4nQ8IAvLQp-9" value="&lt;div&gt;+TestMakePlaylistState()&lt;/div&gt;&lt;div&gt;+TestTrue()&lt;/div&gt;&lt;div&gt;+TestEditPlaylist()&lt;/div&gt;&lt;div&gt;+TestMakePlaylist()&lt;/div&gt;&lt;div&gt;+TestPlaylist()&lt;/div&gt;&lt;div&gt;+TestRadio()&lt;/div&gt;&lt;div&gt;+TestSingleFile()&lt;/div&gt;" style="text;strokeColor=none;fillColor=none;align=left;verticalAlign=top;spacingLeft=4;spacingRight=4;overflow=hidden;rotatable=0;points=[[0,0.5],[1,0.5]];portConstraint=eastwest;whiteSpace=wrap;html=1;" vertex="1" parent="PYjnqi-Kpa4nQ8IAvLQp-6">
          <mxGeometry y="58" width="180" height="112" as="geometry" />
        </mxCell>
        <mxCell id="PYjnqi-Kpa4nQ8IAvLQp-10" value="TestPlaylistState" style="swimlane;fontStyle=1;align=center;verticalAlign=top;childLayout=stackLayout;horizontal=1;startSize=26;horizontalStack=0;resizeParent=1;resizeParentMax=0;resizeLast=0;collapsible=1;marginBottom=0;whiteSpace=wrap;html=1;" vertex="1" parent="1">
          <mxGeometry x="390" y="340" width="180" height="170" as="geometry" />
        </mxCell>
        <mxCell id="PYjnqi-Kpa4nQ8IAvLQp-11" value="-context:Context" style="text;strokeColor=none;fillColor=none;align=left;verticalAlign=top;spacingLeft=4;spacingRight=4;overflow=hidden;rotatable=0;points=[[0,0.5],[1,0.5]];portConstraint=eastwest;whiteSpace=wrap;html=1;" vertex="1" parent="PYjnqi-Kpa4nQ8IAvLQp-10">
          <mxGeometry y="26" width="180" height="24" as="geometry" />
        </mxCell>
        <mxCell id="PYjnqi-Kpa4nQ8IAvLQp-12" value="" style="line;strokeWidth=1;fillColor=none;align=left;verticalAlign=middle;spacingTop=-1;spacingLeft=3;spacingRight=3;rotatable=0;labelPosition=right;points=[];portConstraint=eastwest;strokeColor=inherit;" vertex="1" parent="PYjnqi-Kpa4nQ8IAvLQp-10">
          <mxGeometry y="50" width="180" height="8" as="geometry" />
        </mxCell>
        <mxCell id="PYjnqi-Kpa4nQ8IAvLQp-13" value="&lt;div&gt;+TestPlaylistState()&lt;/div&gt;&lt;div&gt;+TestTrue()&lt;/div&gt;&lt;div&gt;+TestEditPlaylist()&lt;/div&gt;&lt;div&gt;+TestMakePlaylist()&lt;/div&gt;&lt;div&gt;+TestPlaylist()&lt;/div&gt;&lt;div&gt;+TestRadio()&lt;/div&gt;&lt;div&gt;+TestSingleFile()&lt;/div&gt;" style="text;strokeColor=none;fillColor=none;align=left;verticalAlign=top;spacingLeft=4;spacingRight=4;overflow=hidden;rotatable=0;points=[[0,0.5],[1,0.5]];portConstraint=eastwest;whiteSpace=wrap;html=1;" vertex="1" parent="PYjnqi-Kpa4nQ8IAvLQp-10">
          <mxGeometry y="58" width="180" height="112" as="geometry" />
        </mxCell>
        <mxCell id="PYjnqi-Kpa4nQ8IAvLQp-14" value="TestRadioState" style="swimlane;fontStyle=1;align=center;verticalAlign=top;childLayout=stackLayout;horizontal=1;startSize=26;horizontalStack=0;resizeParent=1;resizeParentMax=0;resizeLast=0;collapsible=1;marginBottom=0;whiteSpace=wrap;html=1;" vertex="1" parent="1">
          <mxGeometry x="580" y="340" width="180" height="170" as="geometry" />
        </mxCell>
        <mxCell id="PYjnqi-Kpa4nQ8IAvLQp-15" value="-context:Context" style="text;strokeColor=none;fillColor=none;align=left;verticalAlign=top;spacingLeft=4;spacingRight=4;overflow=hidden;rotatable=0;points=[[0,0.5],[1,0.5]];portConstraint=eastwest;whiteSpace=wrap;html=1;" vertex="1" parent="PYjnqi-Kpa4nQ8IAvLQp-14">
          <mxGeometry y="26" width="180" height="24" as="geometry" />
        </mxCell>
        <mxCell id="PYjnqi-Kpa4nQ8IAvLQp-16" value="" style="line;strokeWidth=1;fillColor=none;align=left;verticalAlign=middle;spacingTop=-1;spacingLeft=3;spacingRight=3;rotatable=0;labelPosition=right;points=[];portConstraint=eastwest;strokeColor=inherit;" vertex="1" parent="PYjnqi-Kpa4nQ8IAvLQp-14">
          <mxGeometry y="50" width="180" height="8" as="geometry" />
        </mxCell>
        <mxCell id="PYjnqi-Kpa4nQ8IAvLQp-17" value="&lt;div&gt;+TestRadioState()&lt;/div&gt;&lt;div&gt;+TestTrue()&lt;/div&gt;&lt;div&gt;+TestEditPlaylist()&lt;/div&gt;&lt;div&gt;+TestMakePlaylist()&lt;/div&gt;&lt;div&gt;+TestPlaylist()&lt;/div&gt;&lt;div&gt;+TestRadio()&lt;/div&gt;&lt;div&gt;+TestSingleFile()&lt;/div&gt;" style="text;strokeColor=none;fillColor=none;align=left;verticalAlign=top;spacingLeft=4;spacingRight=4;overflow=hidden;rotatable=0;points=[[0,0.5],[1,0.5]];portConstraint=eastwest;whiteSpace=wrap;html=1;" vertex="1" parent="PYjnqi-Kpa4nQ8IAvLQp-14">
          <mxGeometry y="58" width="180" height="112" as="geometry" />
        </mxCell>
        <mxCell id="PYjnqi-Kpa4nQ8IAvLQp-18" value="TestSingleFileState" style="swimlane;fontStyle=1;align=center;verticalAlign=top;childLayout=stackLayout;horizontal=1;startSize=26;horizontalStack=0;resizeParent=1;resizeParentMax=0;resizeLast=0;collapsible=1;marginBottom=0;whiteSpace=wrap;html=1;" vertex="1" parent="1">
          <mxGeometry x="770" y="340" width="180" height="170" as="geometry" />
        </mxCell>
        <mxCell id="PYjnqi-Kpa4nQ8IAvLQp-19" value="-context:Context" style="text;strokeColor=none;fillColor=none;align=left;verticalAlign=top;spacingLeft=4;spacingRight=4;overflow=hidden;rotatable=0;points=[[0,0.5],[1,0.5]];portConstraint=eastwest;whiteSpace=wrap;html=1;" vertex="1" parent="PYjnqi-Kpa4nQ8IAvLQp-18">
          <mxGeometry y="26" width="180" height="24" as="geometry" />
        </mxCell>
        <mxCell id="PYjnqi-Kpa4nQ8IAvLQp-20" value="" style="line;strokeWidth=1;fillColor=none;align=left;verticalAlign=middle;spacingTop=-1;spacingLeft=3;spacingRight=3;rotatable=0;labelPosition=right;points=[];portConstraint=eastwest;strokeColor=inherit;" vertex="1" parent="PYjnqi-Kpa4nQ8IAvLQp-18">
          <mxGeometry y="50" width="180" height="8" as="geometry" />
        </mxCell>
        <mxCell id="PYjnqi-Kpa4nQ8IAvLQp-21" value="&lt;div&gt;+TestSingleFileState()&lt;/div&gt;&lt;div&gt;+TestTrue()&lt;/div&gt;&lt;div&gt;+TestEditPlaylist()&lt;/div&gt;&lt;div&gt;+TestMakePlaylist()&lt;/div&gt;&lt;div&gt;+TestPlaylist()&lt;/div&gt;&lt;div&gt;+TestRadio()&lt;/div&gt;&lt;div&gt;+TestSingleFile()&lt;/div&gt;" style="text;strokeColor=none;fillColor=none;align=left;verticalAlign=top;spacingLeft=4;spacingRight=4;overflow=hidden;rotatable=0;points=[[0,0.5],[1,0.5]];portConstraint=eastwest;whiteSpace=wrap;html=1;" vertex="1" parent="PYjnqi-Kpa4nQ8IAvLQp-18">
          <mxGeometry y="58" width="180" height="112" as="geometry" />
        </mxCell>
        <mxCell id="PYjnqi-Kpa4nQ8IAvLQp-22" value="" style="endArrow=block;dashed=1;endFill=0;endSize=12;html=1;rounded=0;entryX=0.005;entryY=0.929;entryDx=0;entryDy=0;entryPerimeter=0;exitX=0.611;exitY=0;exitDx=0;exitDy=0;exitPerimeter=0;" edge="1" parent="1" source="PYjnqi-Kpa4nQ8IAvLQp-2" target="PYjnqi-Kpa4nQ8IAvLQp-1">
          <mxGeometry width="160" relative="1" as="geometry">
            <mxPoint x="410" y="320" as="sourcePoint" />
            <mxPoint x="570" y="320" as="targetPoint" />
          </mxGeometry>
        </mxCell>
        <mxCell id="PYjnqi-Kpa4nQ8IAvLQp-23" value="" style="endArrow=block;dashed=1;endFill=0;endSize=12;html=1;rounded=0;entryX=0.421;entryY=1;entryDx=0;entryDy=0;entryPerimeter=0;exitX=0.5;exitY=0;exitDx=0;exitDy=0;" edge="1" parent="1" source="PYjnqi-Kpa4nQ8IAvLQp-6" target="PYjnqi-Kpa4nQ8IAvLQp-1">
          <mxGeometry width="160" relative="1" as="geometry">
            <mxPoint x="130" y="350" as="sourcePoint" />
            <mxPoint x="420" y="224" as="targetPoint" />
          </mxGeometry>
        </mxCell>
        <mxCell id="PYjnqi-Kpa4nQ8IAvLQp-24" value="" style="endArrow=block;dashed=1;endFill=0;endSize=12;html=1;rounded=0;entryX=0.647;entryY=1;entryDx=0;entryDy=0;entryPerimeter=0;exitX=0.75;exitY=0;exitDx=0;exitDy=0;" edge="1" parent="1" source="PYjnqi-Kpa4nQ8IAvLQp-10" target="PYjnqi-Kpa4nQ8IAvLQp-1">
          <mxGeometry width="160" relative="1" as="geometry">
            <mxPoint x="140" y="360" as="sourcePoint" />
            <mxPoint x="430" y="234" as="targetPoint" />
          </mxGeometry>
        </mxCell>
        <mxCell id="PYjnqi-Kpa4nQ8IAvLQp-25" value="" style="endArrow=block;dashed=1;endFill=0;endSize=12;html=1;rounded=0;entryX=0.879;entryY=1.007;entryDx=0;entryDy=0;entryPerimeter=0;exitX=0.544;exitY=-0.012;exitDx=0;exitDy=0;exitPerimeter=0;" edge="1" parent="1" source="PYjnqi-Kpa4nQ8IAvLQp-14" target="PYjnqi-Kpa4nQ8IAvLQp-1">
          <mxGeometry width="160" relative="1" as="geometry">
            <mxPoint x="150" y="370" as="sourcePoint" />
            <mxPoint x="440" y="244" as="targetPoint" />
          </mxGeometry>
        </mxCell>
        <mxCell id="PYjnqi-Kpa4nQ8IAvLQp-26" value="" style="endArrow=block;dashed=1;endFill=0;endSize=12;html=1;rounded=0;entryX=1;entryY=0.857;entryDx=0;entryDy=0;entryPerimeter=0;exitX=0.5;exitY=0;exitDx=0;exitDy=0;" edge="1" parent="1" source="PYjnqi-Kpa4nQ8IAvLQp-18" target="PYjnqi-Kpa4nQ8IAvLQp-1">
          <mxGeometry width="160" relative="1" as="geometry">
            <mxPoint x="160" y="380" as="sourcePoint" />
            <mxPoint x="450" y="254" as="targetPoint" />
          </mxGeometry>
        </mxCell>
      </root>
    </mxGraphModel>
  </diagram>
</mxfile>
